<svg xmlns="http://www.w3.org/2000/svg" xmlns:xlink="http://www.w3.org/1999/xlink" width="500" zoomAndPan="magnify" viewBox="0 0 375 374.999991" height="500" preserveAspectRatio="xMidYMid meet" version="1.0"><defs><g/></defs><g fill="#ffffff" fill-opacity="1"><g transform="translate(2.299531, 195.214634)"><g><path d="M 0.515625 -51.796875 L 21.390625 -51.796875 C 25.609375 -51.796875 28.984375 -51.128906 31.515625 -49.796875 C 34.054688 -48.472656 35.90625 -46.675781 37.0625 -44.40625 C 38.21875 -42.144531 38.796875 -39.617188 38.796875 -36.828125 C 38.796875 -34.828125 38.523438 -32.847656 37.984375 -30.890625 C 37.453125 -28.941406 36.597656 -27.179688 35.421875 -25.609375 C 34.253906 -24.035156 32.753906 -22.773438 30.921875 -21.828125 C 29.085938 -20.878906 26.878906 -20.40625 24.296875 -20.40625 C 22.328125 -20.40625 20.625 -20.691406 19.1875 -21.265625 C 17.757812 -21.835938 16.523438 -22.546875 15.484375 -23.390625 C 14.453125 -24.234375 13.546875 -25.085938 12.765625 -25.953125 C 11.992188 -26.816406 11.304688 -27.53125 10.703125 -28.09375 C 10.097656 -28.664062 9.5 -28.953125 8.90625 -28.953125 C 8.21875 -28.953125 7.75 -28.78125 7.5 -28.4375 C 7.257812 -28.09375 7.140625 -27.710938 7.140625 -27.296875 C 7.140625 -26.609375 7.503906 -25.914062 8.234375 -25.21875 C 8.960938 -24.53125 9.9375 -23.859375 11.15625 -23.203125 C 12.382812 -22.546875 13.738281 -21.914062 15.21875 -21.3125 C 16.707031 -20.707031 18.195312 -20.113281 19.6875 -19.53125 C 21.207031 -18.976562 22.820312 -18.363281 24.53125 -17.6875 C 26.238281 -17.007812 27.898438 -16.253906 29.515625 -15.421875 C 31.140625 -14.597656 32.609375 -13.664062 33.921875 -12.625 C 35.234375 -11.59375 36.285156 -10.421875 37.078125 -9.109375 C 37.878906 -7.796875 38.28125 -6.332031 38.28125 -4.71875 C 38.28125 -3.0625 38.03125 -1.859375 37.53125 -1.109375 C 37.03125 -0.367188 36.140625 0 34.859375 0 L 23.671875 0 C 23.328125 0 22.988281 -0.0820312 22.65625 -0.25 C 22.332031 -0.425781 22.171875 -0.738281 22.171875 -1.1875 C 22.171875 -1.8125 22.25 -2.351562 22.40625 -2.8125 C 22.5625 -3.28125 22.707031 -3.78125 22.84375 -4.3125 C 22.976562 -4.851562 23.046875 -5.554688 23.046875 -6.421875 C 23.046875 -7.554688 22.691406 -8.753906 21.984375 -10.015625 C 21.273438 -11.273438 20.34375 -12.519531 19.1875 -13.75 C 18.03125 -14.976562 16.78125 -16.132812 15.4375 -17.21875 C 14.09375 -18.3125 12.78125 -19.28125 11.5 -20.125 C 10.21875 -20.96875 9.078125 -21.628906 8.078125 -22.109375 C 7.078125 -22.597656 6.367188 -22.84375 5.953125 -22.84375 C 5.609375 -22.84375 5.367188 -22.703125 5.234375 -22.421875 C 5.097656 -22.148438 5.03125 -21.945312 5.03125 -21.8125 C 5.03125 -20.945312 5.363281 -20.164062 6.03125 -19.46875 C 6.707031 -18.78125 7.578125 -18.109375 8.640625 -17.453125 C 9.710938 -16.796875 10.84375 -16.097656 12.03125 -15.359375 C 13.226562 -14.617188 14.351562 -13.78125 15.40625 -12.84375 C 16.457031 -11.914062 17.320312 -10.828125 18 -9.578125 C 18.675781 -8.335938 19.015625 -6.890625 19.015625 -5.234375 C 19.015625 -4.546875 18.882812 -3.796875 18.625 -2.984375 C 18.363281 -2.171875 17.960938 -1.46875 17.421875 -0.875 C 16.890625 -0.289062 16.191406 0 15.328125 0 L 0.5625 0 C 1.257812 -0.6875 1.734375 -1.503906 1.984375 -2.453125 C 2.242188 -3.410156 2.375 -4.628906 2.375 -6.109375 L 2.375 -14.96875 L 2.328125 -25.90625 L 2.328125 -45.6875 C 2.328125 -47.164062 2.195312 -48.378906 1.9375 -49.328125 C 1.675781 -50.285156 1.203125 -51.109375 0.515625 -51.796875 Z M 18.390625 -40.96875 C 17.078125 -40.96875 15.644531 -40.914062 14.09375 -40.8125 C 12.539062 -40.707031 11.070312 -40.488281 9.6875 -40.15625 C 8.300781 -39.832031 7.164062 -39.328125 6.28125 -38.640625 C 5.40625 -37.953125 4.96875 -37.019531 4.96875 -35.84375 C 4.96875 -34.664062 5.429688 -33.738281 6.359375 -33.0625 C 7.296875 -32.394531 8.53125 -31.890625 10.0625 -31.546875 C 11.601562 -31.203125 13.28125 -30.976562 15.09375 -30.875 C 16.90625 -30.769531 18.710938 -30.71875 20.515625 -30.71875 C 22.304688 -30.71875 24.117188 -30.769531 25.953125 -30.875 C 27.785156 -30.976562 29.46875 -31.203125 31 -31.546875 C 32.539062 -31.890625 33.773438 -32.394531 34.703125 -33.0625 C 35.640625 -33.738281 36.109375 -34.664062 36.109375 -35.84375 C 36.109375 -36.769531 35.726562 -37.546875 34.96875 -38.171875 C 34.207031 -38.796875 33.195312 -39.296875 31.9375 -39.671875 C 30.675781 -40.054688 29.265625 -40.332031 27.703125 -40.5 C 26.148438 -40.675781 24.5625 -40.796875 22.9375 -40.859375 C 21.320312 -40.929688 19.804688 -40.96875 18.390625 -40.96875 Z M 18.390625 -40.96875 "/></g></g></g><g fill="#ffffff" fill-opacity="1"><g transform="translate(42.390038, 195.214634)"><g><path d="M 1.296875 -8.078125 C 1.296875 -10.835938 1.847656 -13.257812 2.953125 -15.34375 C 4.054688 -17.4375 5.546875 -19.234375 7.421875 -20.734375 C 9.304688 -22.242188 11.414062 -23.484375 13.75 -24.453125 C 16.082031 -25.421875 18.457031 -26.160156 20.875 -26.671875 C 21.632812 -26.847656 22.132812 -27.160156 22.375 -27.609375 C 22.613281 -28.054688 22.734375 -28.503906 22.734375 -28.953125 C 22.734375 -29.710938 22.617188 -30.5 22.390625 -31.3125 C 22.171875 -32.125 21.742188 -32.8125 21.109375 -33.375 C 20.472656 -33.945312 19.515625 -34.21875 18.234375 -34.1875 C 16.921875 -34.15625 15.726562 -33.773438 14.65625 -33.046875 C 13.582031 -32.316406 12.601562 -31.425781 11.71875 -30.375 C 10.84375 -29.320312 10.023438 -28.269531 9.265625 -27.21875 C 8.503906 -26.164062 7.785156 -25.285156 7.109375 -24.578125 C 6.441406 -23.867188 5.78125 -23.515625 5.125 -23.515625 C 4.707031 -23.515625 4.332031 -23.675781 4 -24 C 3.675781 -24.332031 3.515625 -24.722656 3.515625 -25.171875 L 3.515625 -28.015625 C 3.515625 -28.921875 3.523438 -29.800781 3.546875 -30.65625 C 3.566406 -31.519531 3.90625 -32.265625 4.5625 -32.890625 C 6.320312 -34.578125 8.488281 -35.6875 11.0625 -36.21875 C 13.632812 -36.757812 16.285156 -37.03125 19.015625 -37.03125 C 21.984375 -37.03125 24.570312 -36.570312 26.78125 -35.65625 C 28.988281 -34.75 30.804688 -33.539062 32.234375 -32.03125 C 33.671875 -30.53125 34.742188 -28.863281 35.453125 -27.03125 C 36.160156 -25.207031 36.515625 -23.363281 36.515625 -21.5 L 36.515625 -6.109375 C 36.515625 -4.628906 36.644531 -3.410156 36.90625 -2.453125 C 37.164062 -1.503906 37.640625 -0.6875 38.328125 0 L 25.640625 0 C 24.117188 0 23.222656 -0.742188 22.953125 -2.234375 C 22.878906 -2.679688 22.726562 -3.09375 22.5 -3.46875 C 22.28125 -3.851562 21.976562 -4.046875 21.59375 -4.046875 C 21.039062 -4.046875 20.5 -3.800781 19.96875 -3.3125 C 19.4375 -2.832031 18.789062 -2.269531 18.03125 -1.625 C 17.269531 -0.988281 16.289062 -0.429688 15.09375 0.046875 C 13.90625 0.535156 12.378906 0.78125 10.515625 0.78125 C 8.859375 0.78125 7.328125 0.382812 5.921875 -0.40625 C 4.523438 -1.207031 3.40625 -2.269531 2.5625 -3.59375 C 1.71875 -4.925781 1.296875 -6.421875 1.296875 -8.078125 Z M 20.875 -23.3125 C 19.769531 -23.3125 18.65625 -22.882812 17.53125 -22.03125 C 16.40625 -21.1875 15.476562 -19.992188 14.75 -18.453125 C 14.03125 -16.921875 13.671875 -15.085938 13.671875 -12.953125 C 13.671875 -11.742188 13.816406 -10.59375 14.109375 -9.5 C 14.410156 -8.414062 14.910156 -7.523438 15.609375 -6.828125 C 16.316406 -6.140625 17.3125 -5.796875 18.59375 -5.796875 C 20.007812 -5.796875 21.0625 -6.359375 21.75 -7.484375 C 22.445312 -8.609375 22.796875 -10.015625 22.796875 -11.703125 C 22.796875 -13.328125 22.785156 -14.734375 22.765625 -15.921875 C 22.742188 -17.117188 22.734375 -18.507812 22.734375 -20.09375 C 22.734375 -21.269531 22.59375 -22.097656 22.3125 -22.578125 C 22.039062 -23.066406 21.5625 -23.3125 20.875 -23.3125 Z M 20.875 -23.3125 "/></g></g></g><g fill="#ffffff" fill-opacity="1"><g transform="translate(80.978438, 195.214634)"><g><path d="M 0 -36.265625 C 1.03125 -36.265625 2.1875 -36.625 3.46875 -37.34375 C 4.75 -38.070312 6.046875 -38.976562 7.359375 -40.0625 C 8.671875 -41.15625 9.910156 -42.234375 11.078125 -43.296875 C 12.253906 -44.367188 13.289062 -45.265625 14.1875 -45.984375 C 15.09375 -46.710938 15.75 -47.078125 16.15625 -47.078125 C 16.8125 -47.078125 17.140625 -46.664062 17.140625 -45.84375 L 17.140625 -36.265625 L 21.59375 -36.265625 L 21.59375 -33.671875 L 17.140625 -33.671875 L 17.140625 -12.734375 C 17.140625 -11.390625 17.15625 -10.046875 17.1875 -8.703125 C 17.226562 -7.359375 17.421875 -6.148438 17.765625 -5.078125 C 18.109375 -4.003906 18.726562 -3.175781 19.625 -2.59375 C 19.832031 -2.445312 20.046875 -2.375 20.265625 -2.375 C 20.492188 -2.375 20.734375 -2.34375 20.984375 -2.28125 C 20.910156 -1.65625 20.570312 -1.109375 19.96875 -0.640625 C 19.363281 -0.179688 18.644531 0.164062 17.8125 0.40625 C 16.988281 0.65625 16.160156 0.78125 15.328125 0.78125 C 12.847656 0.78125 10.851562 0.367188 9.34375 -0.453125 C 7.84375 -1.285156 6.703125 -2.398438 5.921875 -3.796875 C 5.148438 -5.203125 4.632812 -6.765625 4.375 -8.484375 C 4.113281 -10.210938 3.984375 -11.957031 3.984375 -13.71875 L 3.984375 -30.359375 C 3.984375 -30.867188 3.957031 -31.382812 3.90625 -31.90625 C 3.851562 -32.425781 3.660156 -32.847656 3.328125 -33.171875 C 3.003906 -33.503906 2.429688 -33.671875 1.609375 -33.671875 L 0 -33.671875 Z M 0 -36.265625 "/></g></g></g><g fill="#ffffff" fill-opacity="1"><g transform="translate(103.095555, 195.214634)"><g><path d="M 1.296875 -17.140625 C 1.296875 -20.941406 2.003906 -24.332031 3.421875 -27.3125 C 4.835938 -30.300781 6.925781 -32.664062 9.6875 -34.40625 C 12.445312 -36.15625 15.847656 -37.03125 19.890625 -37.03125 C 22.960938 -37.03125 25.578125 -36.375 27.734375 -35.0625 C 29.890625 -33.75 31.53125 -32.039062 32.65625 -29.9375 C 33.78125 -27.832031 34.34375 -25.585938 34.34375 -23.203125 C 34.34375 -21.472656 33.9375 -20.132812 33.125 -19.1875 C 32.3125 -18.238281 31.207031 -17.566406 29.8125 -17.171875 C 28.414062 -16.773438 26.832031 -16.539062 25.0625 -16.46875 C 23.300781 -16.40625 21.460938 -16.414062 19.546875 -16.5 C 17.628906 -16.582031 15.757812 -16.625 13.9375 -16.625 C 13.695312 -16.625 13.4375 -16.597656 13.15625 -16.546875 C 12.875 -16.492188 12.734375 -16.242188 12.734375 -15.796875 C 12.734375 -15.347656 13.191406 -14.722656 14.109375 -13.921875 C 15.023438 -13.128906 16.207031 -12.316406 17.65625 -11.484375 C 19.113281 -10.660156 20.671875 -9.972656 22.328125 -9.421875 C 23.984375 -8.867188 25.550781 -8.59375 27.03125 -8.59375 C 28.28125 -8.59375 29.285156 -8.726562 30.046875 -9 C 30.804688 -9.28125 31.410156 -9.59375 31.859375 -9.9375 C 32.304688 -10.289062 32.675781 -10.601562 32.96875 -10.875 C 33.257812 -11.15625 33.523438 -11.296875 33.765625 -11.296875 C 33.941406 -11.296875 34.125 -11.222656 34.3125 -11.078125 C 34.5 -10.941406 34.59375 -10.648438 34.59375 -10.203125 C 34.59375 -9.234375 34.304688 -8.117188 33.734375 -6.859375 C 33.171875 -5.597656 32.3125 -4.390625 31.15625 -3.234375 C 30 -2.078125 28.515625 -1.117188 26.703125 -0.359375 C 24.890625 0.398438 22.738281 0.78125 20.25 0.78125 C 17.757812 0.78125 15.375 0.332031 13.09375 -0.5625 C 10.820312 -1.46875 8.804688 -2.726562 7.046875 -4.34375 C 5.285156 -5.96875 3.882812 -7.867188 2.84375 -10.046875 C 1.8125 -12.222656 1.296875 -14.585938 1.296875 -17.140625 Z M 7.09375 -26.625 C 7.09375 -25.414062 7.289062 -24.234375 7.6875 -23.078125 C 8.082031 -21.921875 8.71875 -20.96875 9.59375 -20.21875 C 10.476562 -19.476562 11.613281 -19.109375 13 -19.109375 C 14.207031 -19.109375 15.429688 -19.148438 16.671875 -19.234375 C 17.921875 -19.328125 19.070312 -19.503906 20.125 -19.765625 C 21.175781 -20.023438 22.019531 -20.410156 22.65625 -20.921875 C 23.300781 -21.441406 23.625 -22.132812 23.625 -23 C 23.625 -24.34375 23.285156 -25.53125 22.609375 -26.5625 C 21.929688 -27.601562 21.050781 -28.484375 19.96875 -29.203125 C 18.882812 -29.929688 17.734375 -30.476562 16.515625 -30.84375 C 15.304688 -31.207031 14.148438 -31.390625 13.046875 -31.390625 C 12.085938 -31.390625 11.148438 -31.195312 10.234375 -30.8125 C 9.316406 -30.4375 8.5625 -29.894531 7.96875 -29.1875 C 7.382812 -28.476562 7.09375 -27.625 7.09375 -26.625 Z M 7.09375 -26.625 "/></g></g></g><g fill="#ffffff" fill-opacity="1"><g transform="translate(138.731566, 195.214634)"><g><path d="M 2.328125 -45.6875 C 2.328125 -47.164062 2.195312 -48.378906 1.9375 -49.328125 C 1.675781 -50.285156 1.203125 -51.109375 0.515625 -51.796875 L 16.984375 -51.796875 C 18.234375 -51.796875 19.226562 -51.40625 19.96875 -50.625 C 20.707031 -49.851562 21.367188 -48.640625 21.953125 -46.984375 C 22.546875 -45.328125 23.210938 -43.164062 23.953125 -40.5 C 24.691406 -37.84375 25.6875 -34.648438 26.9375 -30.921875 C 28.175781 -34.648438 29.164062 -37.84375 29.90625 -40.5 C 30.65625 -43.164062 31.320312 -45.328125 31.90625 -46.984375 C 32.488281 -48.640625 33.148438 -49.851562 33.890625 -50.625 C 34.640625 -51.40625 35.632812 -51.796875 36.875 -51.796875 L 53.25 -51.796875 C 52.5625 -51.109375 52.085938 -50.285156 51.828125 -49.328125 C 51.566406 -48.378906 51.4375 -47.164062 51.4375 -45.6875 L 51.4375 -6.109375 C 51.4375 -4.628906 51.566406 -3.410156 51.828125 -2.453125 C 52.085938 -1.503906 52.5625 -0.6875 53.25 0 L 35.890625 0 C 36.585938 -0.6875 37.0625 -1.503906 37.3125 -2.453125 C 37.570312 -3.410156 37.703125 -4.628906 37.703125 -6.109375 L 37.703125 -36.265625 C 37.703125 -37.054688 37.660156 -37.890625 37.578125 -38.765625 C 37.492188 -39.648438 37.320312 -40.394531 37.0625 -41 C 36.800781 -41.601562 36.378906 -41.90625 35.796875 -41.90625 C 35.304688 -41.90625 34.769531 -41.332031 34.1875 -40.1875 C 33.601562 -39.050781 32.988281 -37.53125 32.34375 -35.625 C 31.707031 -33.726562 31.066406 -31.613281 30.421875 -29.28125 C 29.785156 -26.957031 29.175781 -24.601562 28.59375 -22.21875 C 28.070312 -20.039062 27.578125 -17.941406 27.109375 -15.921875 C 26.648438 -13.898438 26.203125 -12.078125 25.765625 -10.453125 C 25.335938 -8.835938 24.898438 -7.5625 24.453125 -6.625 C 24.003906 -5.695312 23.519531 -5.234375 23 -5.234375 C 22.550781 -5.234375 22.039062 -5.738281 21.46875 -6.75 C 20.894531 -7.769531 20.304688 -9.117188 19.703125 -10.796875 C 19.097656 -12.472656 18.46875 -14.320312 17.8125 -16.34375 C 17.15625 -18.363281 16.5 -20.375 15.84375 -22.375 C 15.644531 -23 15.351562 -23.894531 14.96875 -25.0625 C 14.59375 -26.238281 14.148438 -27.5625 13.640625 -29.03125 C 13.140625 -30.5 12.601562 -31.984375 12.03125 -33.484375 C 11.46875 -34.984375 10.898438 -36.375 10.328125 -37.65625 C 9.765625 -38.9375 9.210938 -39.960938 8.671875 -40.734375 C 8.140625 -41.515625 7.664062 -41.90625 7.25 -41.90625 C 6.695312 -41.90625 6.28125 -41.601562 6 -41 C 5.726562 -40.394531 5.546875 -39.648438 5.453125 -38.765625 C 5.367188 -37.890625 5.328125 -37.054688 5.328125 -36.265625 C 5.328125 -32.941406 5.722656 -29.953125 6.515625 -27.296875 C 7.316406 -24.640625 8.300781 -22.226562 9.46875 -20.0625 C 10.644531 -17.90625 11.8125 -15.9375 12.96875 -14.15625 C 14.125 -12.382812 15.097656 -10.710938 15.890625 -9.140625 C 16.691406 -7.566406 17.09375 -6.039062 17.09375 -4.5625 C 17.09375 -2.96875 16.515625 -1.804688 15.359375 -1.078125 C 14.203125 -0.359375 12.863281 0 11.34375 0 L 0.515625 0 C 1.203125 -0.6875 1.675781 -1.503906 1.9375 -2.453125 C 2.195312 -3.410156 2.328125 -4.628906 2.328125 -6.109375 Z M 2.328125 -45.6875 "/></g></g></g><g fill="#ffffff" fill-opacity="1"><g transform="translate(192.49635, 195.214634)"><g><path d="M 4.40625 -25.90625 C 3.78125 -28.007812 3.164062 -30.019531 2.5625 -31.9375 C 1.957031 -33.851562 1.101562 -35.296875 0 -36.265625 L 18.125 -36.265625 C 17.507812 -34.804688 17.351562 -33.203125 17.65625 -31.453125 C 17.96875 -29.710938 18.382812 -27.863281 18.90625 -25.90625 C 19.382812 -24.101562 19.882812 -22.179688 20.40625 -20.140625 C 20.925781 -18.109375 21.460938 -16.109375 22.015625 -14.140625 C 22.566406 -12.171875 23.125 -10.375 23.6875 -8.75 C 24.257812 -7.125 24.8125 -5.828125 25.34375 -4.859375 C 25.882812 -3.898438 26.414062 -3.421875 26.9375 -3.421875 C 27.550781 -3.421875 28.144531 -4 28.71875 -5.15625 C 29.289062 -6.3125 29.753906 -7.796875 30.109375 -9.609375 C 30.472656 -11.421875 30.65625 -13.296875 30.65625 -15.234375 C 30.65625 -17.890625 30.335938 -20.019531 29.703125 -21.625 C 29.066406 -23.226562 28.28125 -24.476562 27.34375 -25.375 C 26.414062 -26.28125 25.492188 -26.972656 24.578125 -27.453125 C 23.660156 -27.929688 22.878906 -28.34375 22.234375 -28.6875 C 21.597656 -29.039062 21.28125 -29.472656 21.28125 -29.984375 C 21.28125 -30.816406 21.644531 -31.644531 22.375 -32.46875 C 23.101562 -33.300781 24.070312 -34.0625 25.28125 -34.75 C 26.488281 -35.445312 27.789062 -36 29.1875 -36.40625 C 30.582031 -36.820312 31.957031 -37.03125 33.3125 -37.03125 C 34.6875 -37.03125 35.78125 -36.710938 36.59375 -36.078125 C 37.40625 -35.441406 38 -34.617188 38.375 -33.609375 C 38.757812 -32.609375 38.953125 -31.539062 38.953125 -30.40625 C 38.953125 -28.957031 38.628906 -27.039062 37.984375 -24.65625 C 37.347656 -22.269531 36.53125 -19.609375 35.53125 -16.671875 C 34.53125 -13.742188 33.457031 -10.707031 32.3125 -7.5625 C 31.175781 -4.414062 30.109375 -1.359375 29.109375 1.609375 C 28.273438 3.609375 27.460938 5.492188 26.671875 7.265625 C 25.878906 9.046875 25 10.617188 24.03125 11.984375 C 23.0625 13.347656 21.921875 14.410156 20.609375 15.171875 C 19.296875 15.929688 17.691406 16.3125 15.796875 16.3125 C 14.765625 16.3125 13.675781 16.15625 12.53125 15.84375 C 11.394531 15.539062 10.425781 15.15625 9.625 14.6875 C 8.832031 14.21875 8.4375 13.742188 8.4375 13.265625 C 8.4375 12.710938 8.570312 12.03125 8.84375 11.21875 C 9.125 10.40625 9.441406 9.476562 9.796875 8.4375 C 10.203125 7.125 10.617188 5.925781 11.046875 4.84375 C 11.484375 3.757812 11.960938 3.21875 12.484375 3.21875 C 13.035156 3.21875 13.617188 3.378906 14.234375 3.703125 C 14.859375 4.035156 15.601562 4.375 16.46875 4.71875 C 17.332031 5.0625 18.351562 5.234375 19.53125 5.234375 C 21.113281 5.234375 22.394531 4.960938 23.375 4.421875 C 24.363281 3.890625 25.09375 3.296875 25.5625 2.640625 C 26.03125 1.984375 26.265625 1.46875 26.265625 1.09375 C 26.265625 0.601562 26.0625 0.296875 25.65625 0.171875 C 25.257812 0.0546875 24.804688 0 24.296875 0 L 15.390625 0 C 14.316406 0 13.425781 -0.382812 12.71875 -1.15625 C 12.007812 -1.9375 11.410156 -2.957031 10.921875 -4.21875 C 10.441406 -5.476562 10.019531 -6.820312 9.65625 -8.25 C 9.289062 -9.6875 8.921875 -11.046875 8.546875 -12.328125 C 8.097656 -13.984375 7.664062 -15.457031 7.25 -16.75 C 6.832031 -18.050781 6.398438 -19.410156 5.953125 -20.828125 C 5.503906 -22.242188 4.988281 -23.9375 4.40625 -25.90625 Z M 4.40625 -25.90625 "/></g></g></g><g fill="#ffffff" fill-opacity="1"><g transform="translate(232.742253, 195.214634)"><g><path d="M 0.515625 -51.796875 L 21.390625 -51.796875 C 25.609375 -51.796875 28.984375 -51.128906 31.515625 -49.796875 C 34.054688 -48.472656 35.90625 -46.675781 37.0625 -44.40625 C 38.21875 -42.144531 38.796875 -39.617188 38.796875 -36.828125 C 38.796875 -34.828125 38.484375 -32.820312 37.859375 -30.8125 C 37.242188 -28.8125 36.28125 -26.988281 34.96875 -25.34375 C 33.65625 -23.707031 31.941406 -22.390625 29.828125 -21.390625 C 27.722656 -20.390625 25.171875 -19.890625 22.171875 -19.890625 C 19.890625 -19.890625 17.875 -20.191406 16.125 -20.796875 C 14.382812 -21.398438 12.882812 -22.097656 11.625 -22.890625 C 10.363281 -23.679688 9.300781 -24.378906 8.4375 -24.984375 C 7.570312 -25.597656 6.882812 -25.90625 6.375 -25.90625 C 5.582031 -25.90625 5.1875 -25.472656 5.1875 -24.609375 C 5.1875 -23.503906 5.507812 -22.484375 6.15625 -21.546875 C 6.8125 -20.617188 7.664062 -19.722656 8.71875 -18.859375 C 9.78125 -17.992188 10.894531 -17.101562 12.0625 -16.1875 C 13.238281 -15.269531 14.351562 -14.285156 15.40625 -13.234375 C 16.457031 -12.179688 17.3125 -11 17.96875 -9.6875 C 18.625 -8.375 18.953125 -6.890625 18.953125 -5.234375 C 18.953125 -4.546875 18.820312 -3.796875 18.5625 -2.984375 C 18.3125 -2.171875 17.914062 -1.46875 17.375 -0.875 C 16.84375 -0.289062 16.144531 0 15.28125 0 L 0.515625 0 C 1.203125 -0.6875 1.675781 -1.503906 1.9375 -2.453125 C 2.195312 -3.410156 2.328125 -4.628906 2.328125 -6.109375 L 2.328125 -45.6875 C 2.328125 -47.164062 2.195312 -48.378906 1.9375 -49.328125 C 1.675781 -50.285156 1.203125 -51.109375 0.515625 -51.796875 Z M 18.390625 -40.96875 C 17.078125 -40.96875 15.644531 -40.914062 14.09375 -40.8125 C 12.539062 -40.707031 11.070312 -40.488281 9.6875 -40.15625 C 8.300781 -39.832031 7.164062 -39.328125 6.28125 -38.640625 C 5.40625 -37.953125 4.96875 -37.019531 4.96875 -35.84375 C 4.96875 -34.664062 5.429688 -33.738281 6.359375 -33.0625 C 7.296875 -32.394531 8.53125 -31.890625 10.0625 -31.546875 C 11.601562 -31.203125 13.28125 -30.976562 15.09375 -30.875 C 16.90625 -30.769531 18.710938 -30.71875 20.515625 -30.71875 C 22.304688 -30.71875 24.117188 -30.769531 25.953125 -30.875 C 27.785156 -30.976562 29.46875 -31.203125 31 -31.546875 C 32.539062 -31.890625 33.773438 -32.394531 34.703125 -33.0625 C 35.640625 -33.738281 36.109375 -34.664062 36.109375 -35.84375 C 36.109375 -36.769531 35.726562 -37.546875 34.96875 -38.171875 C 34.207031 -38.796875 33.195312 -39.296875 31.9375 -39.671875 C 30.675781 -40.054688 29.265625 -40.332031 27.703125 -40.5 C 26.148438 -40.675781 24.5625 -40.796875 22.9375 -40.859375 C 21.320312 -40.929688 19.804688 -40.96875 18.390625 -40.96875 Z M 18.390625 -40.96875 "/></g></g></g><g fill="#ffffff" fill-opacity="1"><g transform="translate(272.573774, 195.214634)"><g><path d="M 0.515625 0 C 1.203125 -0.6875 1.675781 -1.503906 1.9375 -2.453125 C 2.195312 -3.410156 2.328125 -4.628906 2.328125 -6.109375 L 2.328125 -30.140625 C 2.328125 -31.628906 2.195312 -32.847656 1.9375 -33.796875 C 1.675781 -34.742188 1.203125 -35.566406 0.515625 -36.265625 L 13.203125 -36.265625 C 14.304688 -36.265625 15.054688 -35.875 15.453125 -35.09375 C 15.859375 -34.3125 16.0625 -33.265625 16.0625 -31.953125 L 16.0625 -31.078125 C 16.0625 -30.453125 16.09375 -30.085938 16.15625 -29.984375 C 16.226562 -29.878906 16.316406 -29.828125 16.421875 -29.828125 C 16.796875 -29.828125 17.164062 -30.066406 17.53125 -30.546875 C 17.894531 -31.035156 18.316406 -31.640625 18.796875 -32.359375 C 19.285156 -33.085938 19.910156 -33.804688 20.671875 -34.515625 C 21.429688 -35.222656 22.367188 -35.816406 23.484375 -36.296875 C 24.609375 -36.785156 25.984375 -37.03125 27.609375 -37.03125 C 28.535156 -37.03125 29.5 -36.910156 30.5 -36.671875 C 31.507812 -36.429688 32.359375 -36.085938 33.046875 -35.640625 C 33.734375 -35.191406 34.078125 -34.617188 34.078125 -33.921875 C 34.078125 -33.609375 33.773438 -32.875 33.171875 -31.71875 C 32.566406 -30.5625 31.9375 -29.328125 31.28125 -28.015625 C 30.5625 -26.609375 29.90625 -25.320312 29.3125 -24.15625 C 28.726562 -23 28.195312 -22.421875 27.71875 -22.421875 C 27.15625 -22.421875 26.71875 -22.65625 26.40625 -23.125 C 26.101562 -23.59375 25.78125 -24.117188 25.4375 -24.703125 C 25.09375 -25.296875 24.582031 -25.820312 23.90625 -26.28125 C 23.226562 -26.75 22.269531 -26.984375 21.03125 -26.984375 C 19.582031 -26.984375 18.503906 -26.613281 17.796875 -25.875 C 17.085938 -25.132812 16.617188 -24.242188 16.390625 -23.203125 C 16.171875 -22.171875 16.0625 -21.171875 16.0625 -20.203125 L 16.0625 -6.109375 C 16.0625 -4.628906 16.1875 -3.410156 16.4375 -2.453125 C 16.695312 -1.503906 17.175781 -0.6875 17.875 0 Z M 0.515625 0 "/></g></g></g><g fill="#ffffff" fill-opacity="1"><g transform="translate(307.173843, 195.214634)"><g><path d="M 6.578125 -4.5625 C 4.785156 -6.382812 3.445312 -8.441406 2.5625 -10.734375 C 1.6875 -13.035156 1.265625 -15.40625 1.296875 -17.84375 C 1.328125 -20.28125 1.816406 -22.660156 2.765625 -24.984375 C 3.722656 -27.316406 5.132812 -29.414062 7 -31.28125 C 8.894531 -33.1875 11.015625 -34.613281 13.359375 -35.5625 C 15.710938 -36.507812 18.097656 -36.984375 20.515625 -36.984375 C 22.859375 -36.984375 25.144531 -36.539062 27.375 -35.65625 C 29.601562 -34.78125 31.597656 -33.441406 33.359375 -31.640625 C 35.148438 -29.847656 36.484375 -27.800781 37.359375 -25.5 C 38.242188 -23.207031 38.671875 -20.84375 38.640625 -18.40625 C 38.609375 -15.976562 38.113281 -13.597656 37.15625 -11.265625 C 36.207031 -8.929688 34.800781 -6.832031 32.9375 -4.96875 C 31.039062 -3.070312 28.914062 -1.640625 26.5625 -0.671875 C 24.21875 0.296875 21.835938 0.78125 19.421875 0.78125 C 17.078125 0.78125 14.789062 0.34375 12.5625 -0.53125 C 10.332031 -1.414062 8.335938 -2.757812 6.578125 -4.5625 Z M 17.453125 -34.234375 C 16.316406 -34.066406 15.394531 -33.175781 14.6875 -31.5625 C 13.976562 -29.957031 13.546875 -27.882812 13.390625 -25.34375 C 13.234375 -22.8125 13.378906 -20.023438 13.828125 -16.984375 C 14.316406 -13.984375 15.015625 -11.300781 15.921875 -8.9375 C 16.835938 -6.570312 17.875 -4.734375 19.03125 -3.421875 C 20.1875 -2.109375 21.316406 -1.535156 22.421875 -1.703125 C 23.523438 -1.878906 24.421875 -2.757812 25.109375 -4.34375 C 25.804688 -5.9375 26.238281 -8.007812 26.40625 -10.5625 C 26.582031 -13.125 26.445312 -15.921875 26 -18.953125 C 25.550781 -21.960938 24.867188 -24.648438 23.953125 -27.015625 C 23.035156 -29.378906 22.007812 -31.21875 20.875 -32.53125 C 19.738281 -33.84375 18.597656 -34.410156 17.453125 -34.234375 Z M 17.453125 -34.234375 "/></g></g></g><g fill="#ffffff" fill-opacity="1"><g transform="translate(347.108952, 195.214634)"><g><path d="M 17.875 0 L 0.515625 0 C 1.203125 -0.6875 1.675781 -1.503906 1.9375 -2.453125 C 2.195312 -3.410156 2.328125 -4.628906 2.328125 -6.109375 L 2.328125 -36.828125 C 2.328125 -38.898438 2.59375 -40.875 3.125 -42.75 C 3.664062 -44.632812 4.515625 -46.3125 5.671875 -47.78125 C 6.828125 -49.25 8.335938 -50.414062 10.203125 -51.28125 C 12.066406 -52.144531 14.328125 -52.578125 16.984375 -52.578125 C 17.984375 -52.578125 19.035156 -52.472656 20.140625 -52.265625 C 21.253906 -52.054688 22.289062 -51.78125 23.25 -51.4375 C 24.21875 -51.09375 25.003906 -50.675781 25.609375 -50.1875 C 26.210938 -49.707031 26.515625 -49.207031 26.515625 -48.6875 C 26.515625 -47.789062 26.316406 -46.820312 25.921875 -45.78125 C 25.523438 -44.75 25.101562 -43.785156 24.65625 -42.890625 C 24.238281 -42.023438 23.882812 -41.269531 23.59375 -40.625 C 23.300781 -39.988281 22.878906 -39.671875 22.328125 -39.671875 C 21.492188 -39.671875 20.59375 -40 19.625 -40.65625 C 18.664062 -41.3125 17.628906 -42.078125 16.515625 -42.953125 C 15.410156 -43.835938 14.265625 -44.609375 13.078125 -45.265625 C 11.890625 -45.921875 10.640625 -46.25 9.328125 -46.25 C 8.734375 -46.25 8.160156 -46.050781 7.609375 -45.65625 C 7.054688 -45.257812 6.78125 -44.664062 6.78125 -43.875 C 6.78125 -42.726562 7.097656 -41.566406 7.734375 -40.390625 C 8.378906 -39.222656 9.269531 -38.242188 10.40625 -37.453125 C 11.550781 -36.660156 12.847656 -36.265625 14.296875 -36.265625 L 20.984375 -36.265625 L 20.984375 -33.671875 L 16.0625 -33.671875 L 16.0625 -6.109375 C 16.0625 -4.628906 16.1875 -3.410156 16.4375 -2.453125 C 16.695312 -1.503906 17.175781 -0.6875 17.875 0 Z M 17.875 0 "/></g></g></g></svg>